<svg width="31" height="18" viewBox="0 0 31 18" fill="none" xmlns="http://www.w3.org/2000/svg">
<path d="M1.73044 4.85984H4.65544C5.87744 4.85984 6.7831 5.24984 7.37244 6.02984C7.96177 6.80984 8.25644 7.93217 8.25644 9.39684C8.25644 10.8615 7.96177 11.9838 7.37244 12.7638C6.7831 13.5438 5.87744 13.9338 4.65544 13.9338H1.73044V4.85984ZM4.52544 12.3998C5.1061 12.3998 5.53077 12.2135 5.79944 11.8408C6.0681 11.4682 6.20244 10.9265 6.20244 10.2158V8.56484C6.20244 7.86284 6.0681 7.3255 5.79944 6.95284C5.53077 6.58017 5.1061 6.39384 4.52544 6.39384H3.65444V12.3998H4.52544ZM16.5974 10.1378H14.3094V13.9338H12.3464V4.85984H14.3094V8.53884H16.5974V4.85984H18.5604V13.9338H16.5974V10.1378ZM27.8113 9.89084L27.9153 7.35584H27.7983L26.1083 12.0228L24.4183 7.35584H24.3013L24.4053 9.89084V13.9338H22.7153V4.85984H25.0163L26.1343 7.91484H26.2383L27.3563 4.85984H29.5013V13.9338H27.8113V9.89084Z" fill="white"/>
</svg>
